<!-- Generator: Adobe Illustrator 18.1.1, SVG Export Plug-In  -->
<svg version="1.1"
	 xmlns="http://www.w3.org/2000/svg" xmlns:xlink="http://www.w3.org/1999/xlink" xmlns:a="http://ns.adobe.com/AdobeSVGViewerExtensions/3.0/"
	 x="0px" y="0px" width="22.834px" height="19.325px" viewBox="0 0 22.834 19.325" enable-background="new 0 0 22.834 19.325"
	 xml:space="preserve">
<defs>
</defs>
<rect x="2.935" y="1.957" fill="#CBD1EF" width="17.001" height="17.368"/>
<path fill="#5347EA" d="M22.628,12.72c0,0.574-0.465,1.04-1.04,1.04l0,0c-0.574,0-1.04-0.465-1.04-1.04v-4.22
	c0-0.574,0.465-1.04,1.04-1.04l0,0c0.574,0,1.04,0.465,1.04,1.04V12.72z"/>
<path fill="#5347EA" d="M2.202,12.781c0,0.574-0.465,1.04-1.04,1.04l0,0c-0.574,0-1.04-0.465-1.04-1.04v-4.22
	c0-0.574,0.465-1.04,1.04-1.04l0,0c0.574,0,1.04,0.465,1.04,1.04V12.781z"/>
<rect x="0.979" y="2.018" fill="#5347EA" width="0.367" height="4.587"/>
<rect x="21.527" y="2.018" fill="#5347EA" width="0.367" height="4.587"/>
<circle fill="#5347EA" cx="1.131" cy="1.154" r="1.131"/>
<circle fill="#5347EA" cx="21.703" cy="1.131" r="1.131"/>
<circle fill="#5347EA" cx="7.155" cy="7.95" r="2.569"/>
<circle fill="#5347EA" cx="15.289" cy="7.95" r="2.569"/>
<path fill="#5347EA" d="M13.472,12.622H9.278l2.097-3.632L13.472,12.622z M9.913,12.255h2.923l-1.462-2.532L9.913,12.255z"/>
<path fill="#5347EA" d="M17.491,15.954H5.443v-2.247h12.048V15.954z M6.177,15.22h10.58v-0.779H6.177V15.22z"/>
<circle fill="#CBD1EF" cx="7.063" cy="8.011" r="0.52"/>
<circle fill="#CBD1EF" cx="15.35" cy="8.011" r="0.52"/>
</svg>