<!-- Generator: Adobe Illustrator 18.1.1, SVG Export Plug-In  -->
<svg version="1.1"
	 xmlns="http://www.w3.org/2000/svg" xmlns:xlink="http://www.w3.org/1999/xlink" xmlns:a="http://ns.adobe.com/AdobeSVGViewerExtensions/3.0/"
	 x="0px" y="0px" width="23.784px" height="23.637px" viewBox="0 0 23.784 23.637" enable-background="new 0 0 23.784 23.637"
	 xml:space="preserve">
<defs>
</defs>
<path fill="#5347EA" d="M0,14.342c0-0.105,0-0.209,0-0.314c0.004-0.004,0.012-0.008,0.013-0.014c0.076-0.34,0.296-0.565,0.588-0.732
	c0.305-0.174,0.636-0.269,0.977-0.332c0.347-0.065,0.655-0.542,0.38-0.89c-0.422-0.534-0.781-1.117-1.172-1.676
	C0.573,10.08,0.628,9.73,0.927,9.508C1.338,9.203,1.744,8.89,2.154,8.583c0.141-0.106,0.28-0.216,0.432-0.303
	c0.3-0.173,0.597-0.038,0.677,0.297c0.021,0.086,0.037,0.172,0.052,0.259c0.047,0.273,0.08,0.55,0.142,0.819
	c0.065,0.283,0.229,0.5,0.519,0.587c0.111,0.033,0.231,0.045,0.347,0.05c0.813,0.034,1.399-0.437,1.592-1.209
	C5.987,8.797,5.99,8.513,5.77,8.293C5.639,8.162,5.472,8.06,5.308,7.971C5.047,7.83,4.771,7.717,4.509,7.579
	C4.303,7.471,4.251,7.252,4.347,7.04C4.437,6.839,4.62,6.738,4.782,6.615C5.198,6.299,5.62,5.992,6.033,5.673
	c0.349-0.27,0.696-0.251,0.954,0.068c0.448,0.553,0.896,1.105,1.345,1.657c0.073,0.09,0.167,0.142,0.286,0.15
	c0.195,0.013,0.49-0.1,0.624-0.364c0.189-0.372,0.415-0.719,0.76-0.969c0.309-0.223,0.646-0.284,0.996-0.113
	c0.49,0.239,0.801,0.66,1.061,1.118c0.099,0.175,0.144,0.381,0.214,0.573c0,0.078,0,0.157,0,0.235
	c-0.084,0.402-0.349,0.652-0.701,0.825c-0.259,0.127-0.536,0.203-0.819,0.256c-0.248,0.046-0.424,0.194-0.54,0.412
	c-0.066,0.124-0.068,0.246,0.023,0.367c0.202,0.272,0.398,0.549,0.596,0.825c0.22,0.304,0.443,0.606,0.658,0.913
	c0.187,0.267,0.119,0.612-0.144,0.807c-0.309,0.229-0.614,0.465-0.922,0.695c-0.198,0.148-0.393,0.304-0.602,0.436
	c-0.285,0.18-0.555,0.055-0.627-0.269c-0.068-0.306-0.129-0.614-0.222-0.912c-0.055-0.177-0.148-0.349-0.253-0.503
	c-0.186-0.272-0.464-0.375-0.786-0.34c-0.412,0.044-0.792,0.205-1.114,0.448c-0.318,0.239-0.572,0.557-0.728,0.932
	c-0.103,0.248-0.102,0.501,0.035,0.745c0.097,0.172,0.226,0.317,0.388,0.42c0.311,0.197,0.632,0.377,0.951,0.56
	c0.184,0.106,0.255,0.265,0.174,0.459c-0.035,0.084-0.095,0.167-0.164,0.227c-0.156,0.133-0.324,0.252-0.489,0.375
	c-0.345,0.257-0.688,0.519-1.038,0.768c-0.251,0.179-0.591,0.114-0.779-0.127c-0.436-0.562-0.874-1.122-1.31-1.684
	c-0.066-0.085-0.149-0.131-0.252-0.126c-0.251,0.011-0.45,0.126-0.589,0.334c-0.153,0.23-0.285,0.476-0.447,0.699
	c-0.151,0.208-0.35,0.369-0.593,0.467c-0.376,0.152-0.71,0.04-1.005-0.195c-0.34-0.272-0.6-0.617-0.791-1.008
	C0.107,14.678,0.06,14.507,0,14.342z"/>
<path fill="#CBD1EF" d="M14.276,23.637c-0.105,0-0.209,0-0.314,0c-0.004-0.004-0.008-0.012-0.014-0.013
	c-0.34-0.076-0.565-0.296-0.732-0.588c-0.174-0.305-0.269-0.636-0.332-0.977c-0.065-0.347-0.542-0.655-0.89-0.38
	c-0.534,0.422-1.117,0.781-1.676,1.172c-0.306,0.214-0.655,0.16-0.878-0.139c-0.306-0.411-0.618-0.817-0.925-1.227
	c-0.106-0.141-0.216-0.28-0.303-0.432c-0.173-0.3-0.038-0.597,0.297-0.677c0.086-0.021,0.172-0.037,0.259-0.052
	c0.273-0.047,0.55-0.08,0.819-0.142c0.283-0.065,0.5-0.229,0.587-0.519c0.033-0.111,0.045-0.231,0.05-0.347
	c0.034-0.813-0.437-1.399-1.209-1.592c-0.285-0.071-0.569-0.074-0.79,0.146c-0.131,0.131-0.232,0.298-0.321,0.462
	c-0.141,0.261-0.254,0.536-0.392,0.799c-0.108,0.206-0.327,0.258-0.54,0.162c-0.201-0.091-0.302-0.273-0.425-0.435
	c-0.315-0.416-0.622-0.838-0.942-1.251c-0.27-0.349-0.251-0.696,0.068-0.954c0.553-0.448,1.105-0.896,1.657-1.345
	c0.09-0.073,0.142-0.167,0.15-0.286c0.013-0.195-0.1-0.49-0.364-0.624c-0.372-0.189-0.719-0.415-0.969-0.76
	c-0.223-0.309-0.284-0.646-0.113-0.996c0.239-0.49,0.66-0.801,1.118-1.061c0.175-0.099,0.381-0.144,0.573-0.214
	c0.078,0,0.157,0,0.235,0c0.402,0.084,0.652,0.349,0.825,0.701c0.127,0.259,0.203,0.536,0.256,0.819
	c0.046,0.248,0.194,0.424,0.412,0.54c0.124,0.066,0.246,0.068,0.367-0.023c0.272-0.202,0.549-0.398,0.825-0.596
	c0.304-0.22,0.606-0.443,0.913-0.658c0.267-0.187,0.612-0.119,0.807,0.144c0.229,0.309,0.465,0.614,0.695,0.922
	c0.148,0.198,0.304,0.393,0.436,0.602c0.18,0.285,0.055,0.555-0.269,0.627c-0.306,0.068-0.614,0.129-0.912,0.222
	c-0.177,0.055-0.349,0.148-0.503,0.253c-0.272,0.186-0.375,0.464-0.34,0.786c0.044,0.412,0.205,0.792,0.448,1.114
	c0.239,0.318,0.557,0.572,0.932,0.728c0.248,0.103,0.501,0.102,0.745-0.035c0.172-0.097,0.317-0.226,0.42-0.388
	c0.197-0.311,0.377-0.632,0.56-0.951c0.106-0.184,0.265-0.255,0.459-0.174c0.084,0.035,0.167,0.095,0.227,0.164
	c0.133,0.156,0.252,0.324,0.375,0.489c0.257,0.345,0.519,0.688,0.768,1.038c0.179,0.251,0.114,0.591-0.127,0.779
	c-0.562,0.436-1.122,0.874-1.684,1.31c-0.085,0.066-0.131,0.149-0.126,0.252c0.011,0.251,0.126,0.45,0.334,0.589
	c0.23,0.153,0.476,0.285,0.699,0.447c0.208,0.151,0.369,0.35,0.467,0.593c0.152,0.376,0.04,0.71-0.195,1.005
	c-0.272,0.34-0.617,0.6-1.008,0.791C14.612,23.531,14.441,23.577,14.276,23.637z"/>
<path fill="#5347EA" d="M23.784,9.295c0,0.105,0,0.209,0,0.314c-0.004,0.004-0.012,0.008-0.013,0.014
	c-0.076,0.34-0.296,0.565-0.588,0.732c-0.305,0.174-0.636,0.269-0.977,0.332c-0.347,0.065-0.655,0.542-0.38,0.89
	c0.422,0.534,0.781,1.117,1.172,1.676c0.214,0.306,0.16,0.655-0.139,0.878c-0.411,0.306-0.817,0.618-1.227,0.925
	c-0.141,0.106-0.28,0.216-0.432,0.303c-0.3,0.173-0.597,0.038-0.677-0.297c-0.021-0.086-0.037-0.172-0.052-0.259
	c-0.047-0.273-0.08-0.55-0.142-0.819c-0.065-0.283-0.229-0.5-0.519-0.587c-0.111-0.033-0.231-0.045-0.347-0.05
	c-0.813-0.034-1.399,0.437-1.592,1.209c-0.071,0.285-0.074,0.569,0.146,0.79c0.131,0.131,0.298,0.232,0.462,0.321
	c0.261,0.141,0.536,0.254,0.799,0.392c0.206,0.108,0.258,0.327,0.162,0.54c-0.091,0.201-0.273,0.302-0.435,0.425
	c-0.416,0.315-0.838,0.622-1.251,0.942c-0.349,0.27-0.696,0.251-0.954-0.068c-0.448-0.553-0.896-1.105-1.345-1.657
	c-0.073-0.09-0.167-0.142-0.286-0.15c-0.195-0.013-0.49,0.1-0.624,0.364c-0.189,0.372-0.415,0.719-0.76,0.969
	c-0.309,0.223-0.646,0.284-0.996,0.113c-0.49-0.239-0.801-0.66-1.061-1.118c-0.099-0.175-0.144-0.381-0.214-0.573
	c0-0.078,0-0.157,0-0.235c0.084-0.402,0.349-0.652,0.701-0.825c0.259-0.127,0.536-0.203,0.819-0.256
	c0.248-0.046,0.424-0.194,0.54-0.412c0.066-0.124,0.068-0.246-0.023-0.367c-0.202-0.272-0.398-0.549-0.596-0.825
	c-0.22-0.304-0.443-0.606-0.658-0.913c-0.187-0.267-0.119-0.612,0.144-0.807c0.309-0.229,0.614-0.465,0.922-0.695
	c0.198-0.148,0.393-0.304,0.602-0.436c0.285-0.18,0.555-0.055,0.627,0.269c0.068,0.306,0.129,0.614,0.222,0.912
	c0.055,0.177,0.148,0.349,0.253,0.503c0.186,0.272,0.464,0.375,0.786,0.34c0.412-0.044,0.792-0.205,1.114-0.448
	c0.318-0.239,0.572-0.557,0.728-0.932c0.103-0.248,0.102-0.501-0.035-0.745c-0.097-0.172-0.226-0.317-0.388-0.42
	c-0.311-0.197-0.632-0.377-0.951-0.56c-0.184-0.106-0.255-0.265-0.174-0.459c0.035-0.084,0.095-0.167,0.164-0.227
	c0.156-0.133,0.324-0.252,0.489-0.375c0.345-0.257,0.688-0.519,1.038-0.768c0.251-0.179,0.591-0.114,0.779,0.127
	c0.436,0.562,0.874,1.122,1.31,1.684c0.066,0.085,0.149,0.131,0.252,0.126c0.251-0.011,0.45-0.126,0.589-0.334
	c0.153-0.23,0.285-0.476,0.447-0.699c0.151-0.208,0.35-0.369,0.593-0.467c0.376-0.152,0.71-0.04,1.005,0.195
	c0.34,0.272,0.6,0.617,0.791,1.008C23.677,8.959,23.724,9.131,23.784,9.295z"/>
<path fill="#CBD1EF" d="M9.508,0c0.105,0,0.209,0,0.314,0C9.826,0.004,9.83,0.012,9.835,0.013c0.34,0.076,0.565,0.296,0.732,0.588
	c0.174,0.305,0.269,0.636,0.332,0.977c0.065,0.347,0.542,0.655,0.89,0.38c0.534-0.422,1.117-0.781,1.676-1.172
	c0.306-0.214,0.655-0.16,0.878,0.139c0.306,0.411,0.618,0.817,0.925,1.227c0.106,0.141,0.216,0.28,0.303,0.432
	c0.173,0.3,0.038,0.597-0.297,0.677c-0.086,0.021-0.172,0.037-0.259,0.052c-0.273,0.047-0.55,0.08-0.819,0.142
	c-0.283,0.065-0.5,0.229-0.587,0.519c-0.033,0.111-0.045,0.231-0.05,0.347c-0.034,0.813,0.437,1.399,1.209,1.592
	c0.285,0.071,0.569,0.074,0.79-0.146c0.131-0.131,0.232-0.298,0.321-0.462c0.141-0.261,0.254-0.536,0.392-0.799
	c0.108-0.206,0.327-0.258,0.54-0.162c0.201,0.091,0.302,0.273,0.425,0.435c0.315,0.416,0.622,0.838,0.942,1.251
	c0.27,0.349,0.251,0.696-0.068,0.954c-0.553,0.448-1.105,0.896-1.657,1.345c-0.09,0.073-0.142,0.167-0.15,0.286
	c-0.013,0.195,0.1,0.49,0.364,0.624c0.372,0.189,0.719,0.415,0.969,0.76c0.223,0.309,0.284,0.646,0.113,0.996
	c-0.239,0.49-0.66,0.801-1.118,1.061c-0.175,0.099-0.381,0.144-0.573,0.214c-0.078,0-0.157,0-0.235,0
	c-0.402-0.084-0.652-0.349-0.825-0.701c-0.127-0.259-0.203-0.536-0.256-0.819c-0.046-0.248-0.194-0.424-0.412-0.54
	c-0.124-0.066-0.246-0.068-0.367,0.023c-0.272,0.202-0.549,0.398-0.825,0.596c-0.304,0.22-0.606,0.443-0.913,0.658
	c-0.267,0.187-0.612,0.119-0.807-0.144c-0.229-0.309-0.465-0.614-0.695-0.922c-0.148-0.198-0.304-0.393-0.436-0.602
	c-0.18-0.285-0.055-0.555,0.269-0.627c0.306-0.068,0.614-0.129,0.912-0.222c0.177-0.055,0.349-0.148,0.503-0.253
	c0.272-0.186,0.375-0.464,0.34-0.786c-0.044-0.412-0.205-0.792-0.448-1.114c-0.239-0.318-0.557-0.572-0.932-0.728
	c-0.248-0.103-0.501-0.102-0.745,0.035c-0.172,0.097-0.317,0.226-0.42,0.388c-0.197,0.311-0.377,0.632-0.56,0.951
	C9.099,7.65,8.939,7.721,8.745,7.64C8.661,7.605,8.578,7.545,8.518,7.476C8.385,7.32,8.266,7.151,8.143,6.987
	C7.886,6.641,7.625,6.299,7.375,5.948C7.196,5.697,7.261,5.357,7.502,5.17c0.562-0.436,1.122-0.874,1.684-1.31
	c0.085-0.066,0.131-0.149,0.126-0.252c-0.011-0.251-0.126-0.45-0.334-0.589C8.748,2.866,8.503,2.734,8.28,2.572
	c-0.208-0.151-0.369-0.35-0.467-0.593c-0.152-0.376-0.04-0.71,0.195-1.005c0.272-0.34,0.617-0.6,1.008-0.791
	C9.172,0.107,9.343,0.06,9.508,0z"/>
</svg>