<!-- Generator: Adobe Illustrator 18.1.1, SVG Export Plug-In  -->
<svg version="1.1"
	 xmlns="http://www.w3.org/2000/svg" xmlns:xlink="http://www.w3.org/1999/xlink" xmlns:a="http://ns.adobe.com/AdobeSVGViewerExtensions/3.0/"
	 x="0px" y="0px" width="37.694px" height="20.243px" viewBox="0 0 37.694 20.243" enable-background="new 0 0 37.694 20.243"
	 xml:space="preserve">
<defs>
</defs>
<path fill="#CBD1EF" d="M32.79,6.146c0,0-0.241,0-0.656,0.003l-0.472-5.227c2.09-0.057,3.763-0.151,3.753-0.537
	c-0.013-0.495-1.755-0.391-3.907-0.334c-2.151,0.057-3.951,0.039-3.883,0.541c0.057,0.423,1.517,0.398,3.443,0.347l0.493,5.216
	c-1.962,0.02-5.889,0.09-8.885,0.343L10.507,7.021c0,0-6.742,0.657-10.507,5.647v1.707c0,0,11.383,0.788,22.809,0.525l0.044-0.438
	H35.33C35.33,14.464,37.475,6.759,32.79,6.146z"/>
<circle fill="#5347EA" cx="8.34" cy="15.055" r="5.188"/>
<ellipse fill="#FFFFFF" cx="8.23" cy="15.055" rx="0.7" ry="0.679"/>
<path fill="#FFFFFF" d="M8.384,19.061c-2.185,0-3.962-1.758-3.962-3.918s1.777-3.918,3.962-3.918s3.962,1.758,3.962,3.918
	S10.568,19.061,8.384,19.061z M8.384,11.399c-2.088,0-3.787,1.679-3.787,3.743s1.699,3.743,3.787,3.743s3.787-1.679,3.787-3.743
	S10.472,11.399,8.384,11.399z"/>
<circle fill="#5347EA" cx="32.987" cy="15.011" r="4.706"/>
<ellipse fill="#FFFFFF" cx="32.878" cy="15.099" rx="0.7" ry="0.679"/>
<path fill="#FFFFFF" d="M33.031,19.104c-2.185,0-3.962-1.758-3.962-3.918s1.777-3.918,3.962-3.918s3.962,1.758,3.962,3.918
	S35.216,19.104,33.031,19.104z M33.031,11.443c-2.088,0-3.787,1.679-3.787,3.743s1.699,3.743,3.787,3.743
	c2.088,0,3.787-1.679,3.787-3.743S35.119,11.443,33.031,11.443z"/>
<path fill="#5347EA" stroke="#FFFFFF" stroke-width="0.2194" stroke-miterlimit="10" d="M22.809,6.277l-0.7,0.613
	c0,0-6.479,0.657-7.18,0.876c0,0-0.496-3.488,0-3.371c0,0-0.175-0.394,1.751,1.27c0,0,4.203,0.525,5.472,0.131
	C22.152,5.796,22.809,5.708,22.809,6.277z"/>
</svg>