<!-- Generator: Adobe Illustrator 18.1.1, SVG Export Plug-In  -->
<svg version="1.1"
	 xmlns="http://www.w3.org/2000/svg" xmlns:xlink="http://www.w3.org/1999/xlink" xmlns:a="http://ns.adobe.com/AdobeSVGViewerExtensions/3.0/"
	 x="0px" y="0px" width="15.679px" height="18.634px" viewBox="0 0 15.679 18.634" enable-background="new 0 0 15.679 18.634"
	 xml:space="preserve">
<defs>
</defs>
<path fill="#FFFFFF" stroke="#5347EA" stroke-width="0.9415" stroke-miterlimit="10" d="M3.215,12.1
	c-0.053-0.089-0.106-0.178-0.158-0.268c-0.289-0.499-0.589-0.992-0.866-1.499C1.68,9.393,1.231,8.421,0.901,7.39
	C0.693,6.741,0.529,6.078,0.487,5.377C0.432,4.458,0.512,3.529,0.8,2.592c0.135-0.439,0.333-0.86,0.638-1.244
	c0.151-0.19,0.327-0.358,0.521-0.51C2.067,0.754,2.191,0.715,2.313,0.67c0.33-0.122,0.662-0.21,0.999-0.199
	C3.7,0.485,3.98,0.647,4.151,0.952C4.163,0.974,4.17,1,4.176,1.025C4.448,2.3,4.72,3.574,4.991,4.849
	c0.02,0.095,0.038,0.192,0.039,0.292c0.004,0.296-0.154,0.505-0.463,0.627C4.434,5.821,4.302,5.851,4.163,5.839
	C3.906,5.816,3.645,5.813,3.378,5.854C3.268,5.871,3.158,5.895,3.057,5.96C2.964,6.019,2.921,6.098,2.934,6.19
	c0.008,0.058,0.032,0.112,0.052,0.167c0.008,0.021,0.023,0.038,0.036,0.056c1.882,2.758,3.764,5.516,5.647,8.273
	c0.035,0.051,0.08,0.099,0.13,0.136c0.116,0.085,0.243,0.063,0.361-0.056c0.1-0.1,0.172-0.217,0.223-0.338
	c0.086-0.203,0.171-0.407,0.237-0.613c0.05-0.156,0.145-0.282,0.269-0.394c0.216-0.196,0.438-0.247,0.676-0.147
	c0.127,0.053,0.242,0.129,0.355,0.203c1.06,0.697,2.119,1.395,3.177,2.095c0.137,0.091,0.202,0.235,0.246,0.387
	c0.077,0.264,0.019,0.534-0.112,0.804c-0.147,0.301-0.361,0.565-0.596,0.818c-0.016,0.017-0.03,0.036-0.045,0.054
	c-0.05,0.034-0.101,0.069-0.151,0.103c-0.084,0.043-0.168,0.089-0.253,0.129c-0.436,0.204-0.883,0.282-1.334,0.293
	c-0.523,0.013-1.021-0.061-1.505-0.177c-0.845-0.202-1.633-0.502-2.335-0.948c-0.867-0.551-1.622-1.215-2.318-1.939
	c-0.363-0.378-0.712-0.768-1.05-1.165c-0.336-0.395-0.652-0.808-0.976-1.213c-0.079-0.098-0.155-0.199-0.233-0.298
	C3.362,12.314,3.289,12.207,3.215,12.1z"/>
<path fill="none" stroke="#FFFFFF" stroke-width="0.9415" stroke-miterlimit="10" d="M8.079,4.823c0,0,3.337,1.059,3.573,4.002"/>
<path fill="none" stroke="#FFFFFF" stroke-width="1.3541" stroke-miterlimit="10" d="M9.865,1.945c0,0,4.8,1.523,5.139,5.755"/>
</svg>