<!-- Generator: Adobe Illustrator 18.1.1, SVG Export Plug-In  -->
<svg version="1.1"
	 xmlns="http://www.w3.org/2000/svg" xmlns:xlink="http://www.w3.org/1999/xlink" xmlns:a="http://ns.adobe.com/AdobeSVGViewerExtensions/3.0/"
	 x="0px" y="0px" width="23.206px" height="18.923px" viewBox="0 0 23.206 18.923" enable-background="new 0 0 23.206 18.923"
	 xml:space="preserve">
<defs>
</defs>
<ellipse fill="#CBD1EF" cx="11.777" cy="10.714" rx="11.429" ry="8.209"/>
<path fill="#CBD1EF" d="M20.845,5.992c0,0,4.132-3.219-0.161-5.419s-4.936,2.629-4.936,2.844L20.845,5.992z"/>
<path fill="#CBD1EF" d="M6.619,3.825c0,0-0.541-5.21-4.681-2.735s-0.386,5.58-0.204,5.693L6.619,3.825z"/>
<path fill="#5347EA" d="M20.067,5c0,0,1.932-1.69,1.107-2.596c0,0-1.107-1.268-2.676-1.308c0,0-0.805,0.101-1.469,2.314
	C17.029,3.41,18.478,4.597,20.067,5z"/>
<path fill="#5347EA" d="M2.681,5.679c0,0-2.088-1.492-1.356-2.474c0,0,0.977-1.37,2.535-1.565c0,0,0.811,0.021,1.689,2.158
	C5.548,3.798,4.223,5.122,2.681,5.679z"/>
<circle fill="#5347EA" cx="8.504" cy="8.97" r="0.858"/>
<ellipse fill="#FFFFFF" cx="8.128" cy="8.57" rx="0.131" ry="0.123"/>
<circle fill="#5347EA" cx="14.675" cy="8.97" r="0.858"/>
<ellipse fill="#FFFFFF" cx="14.299" cy="8.57" rx="0.131" ry="0.123"/>
<path fill="#5347EA" d="M11.536,12.968c0.08,0.028,1.663-0.939,0.349-1.234c0,0-0.778-0.107-1.073,0.107
	C10.516,12.055,10.704,12.673,11.536,12.968z"/>
<path fill="none" stroke="#5347EA" stroke-width="0.2093" stroke-miterlimit="10" d="M8.88,15.1c0,0,1.046,1.69,2.616-0.121
	l0.04-2.173"/>
<path fill="none" stroke="#5347EA" stroke-width="0.2093" stroke-miterlimit="10" d="M14.272,15.1c0,0-1.368,1.891-2.777-0.121"/>
</svg>