<!-- Generator: Adobe Illustrator 18.1.1, SVG Export Plug-In  -->
<svg version="1.1"
	 xmlns="http://www.w3.org/2000/svg" xmlns:xlink="http://www.w3.org/1999/xlink" xmlns:a="http://ns.adobe.com/AdobeSVGViewerExtensions/3.0/"
	 x="0px" y="0px" width="36.21px" height="19.115px" viewBox="0 0 36.21 19.115" enable-background="new 0 0 36.21 19.115"
	 xml:space="preserve">
<defs>
</defs>
<ellipse fill="#CBD1EF" cx="17.869" cy="9.461" rx="8.051" ry="7.776"/>
<circle fill="#5347EA" cx="15.101" cy="11.15" r="1.031"/>
<circle fill="#5347EA" cx="20.55" cy="10.649" r="1.031"/>
<path fill="none" stroke="#5347EA" stroke-width="0.2045" stroke-miterlimit="10" d="M19.519,13.487c0,0-0.035,1.291-1.237,1.433
	c-1.492,0.177-1.826-1.178-1.826-1.178"/>
<path fill="#5347EA" d="M22.975,2.431l2.906,4.595l-2.592-0.471l2.199,2.081l-1.06,0.039l0.746,1.375L23.8,9.933l-1.532-2.081
	l-0.314,1.217l-0.785-0.785l-1.257,0.275l-0.707-1.807l-1.178,0.393l0.825,2.199l-0.982-0.785l-0.079,1.06l-0.943-3.299
	l-1.964,2.396l-0.668,1.1l-0.118-1.767l-0.668,1.414l-0.668,0.196l-0.118-1.532l2.042-4.163c0,0-4.006,2.435-4.359,4.948
	c0,0-1.453-6.323,6.048-7.815c0,0,4.045-0.668,7.069,1.453L22.975,2.431z"/>
<path fill="#5347EA" d="M22.906,2.088c0,0,7.688,0.825,13.304,13.304l-1.021-0.118l0.314,2.239l-2.71-2.553l0.668,1.807
	l-1.021-0.589l-1.257-0.275l-0.236,0.707l-1.1,0.864l-1.021-1.178c0,0-0.785-7.737-3.809-12.135L22.906,2.088z"/>
<path fill="#5347EA" d="M11.089,2.404c0,0-9.574,5.828-11.089,14.676l1.003-0.224l-0.078,2.259l2.427-2.823l-0.474,1.867
	l0.954-0.693l1.221-0.405l0.309,0.678l1.184,0.744l0.892-1.279c0,0-0.031-7.776,2.515-12.468l3.941-2.913L11.089,2.404z"/>
<ellipse fill="#FFFFFF" cx="14.649" cy="10.669" rx="0.157" ry="0.147"/>
<ellipse fill="#FFFFFF" cx="20.01" cy="10.149" rx="0.157" ry="0.147"/>
<path fill="none" stroke="#5347EA" stroke-width="0.2045" stroke-miterlimit="10" d="M14.235,10.698c0,0-0.569-0.079-0.737-0.491"/>
<path fill="none" stroke="#5347EA" stroke-width="0.2045" stroke-miterlimit="10" d="M14.487,10.388c0,0-0.305-0.244-0.334-0.642"/>
<path fill="none" stroke="#5347EA" stroke-width="0.2045" stroke-miterlimit="10" d="M14.094,11.165c0,0-0.481,0.049-0.79-0.191"/>
<g>
	<path fill="none" stroke="#5347EA" stroke-width="0.2045" stroke-miterlimit="10" d="M21.325,10.205c0,0,0.569-0.079,0.737-0.491"
		/>
	<path fill="none" stroke="#5347EA" stroke-width="0.2045" stroke-miterlimit="10" d="M21.073,9.894c0,0,0.305-0.244,0.334-0.642"/>
	<path fill="none" stroke="#5347EA" stroke-width="0.2045" stroke-miterlimit="10" d="M21.466,10.671c0,0,0.481,0.049,0.79-0.191"/>
</g>
<g>
	<path fill="#CBD1EF" d="M11.357,3.077c0.218,0.145,0.242,0.491,0.054,0.773l-0.237,0.355c-0.188,0.282-0.517,0.393-0.734,0.248l0,0
		c-0.218-0.145-0.242-0.491-0.054-0.773l0.237-0.355C10.81,3.043,11.139,2.932,11.357,3.077L11.357,3.077z"/>
	<path fill="#CBD1EF" d="M11.089,3.221c-0.03-0.507,0.03-1.085,0.294-1.528c0.389-0.653,1.468-0.722,1.994-0.191
		c0.279,0.282,0.261,0.473,0.007,0.753c-0.574,0.631-1.422,1.036-2.187,1.374C11.161,3.493,11.125,3.357,11.089,3.221z"/>
	<path fill="#CBD1EF" d="M10.776,4.622c-0.13,0.515-0.293,1.034-0.528,1.512c-0.105,0.214-0.263,0.55-0.518,0.62
		C9.471,6.824,9.01,6.676,8.804,6.51C8.555,6.309,8.28,5.988,8.332,5.647C8.384,5.309,8.61,5.002,8.853,4.772
		c0.319-0.301,0.726-0.51,1.16-0.578c0.083-0.013,0.691-0.071,0.704,0.021C10.737,4.351,10.757,4.486,10.776,4.622z"/>
</g>
<g>
	<path fill="#CBD1EF" d="M23.127,1.928c-0.218,0.145-0.242,0.491-0.054,0.773l0.237,0.355c0.188,0.282,0.517,0.393,0.734,0.248l0,0
		c0.218-0.145,0.242-0.491,0.054-0.773l-0.237-0.355C23.673,1.894,23.345,1.783,23.127,1.928L23.127,1.928z"/>
	<path fill="#CBD1EF" d="M23.395,2.072c0.03-0.507-0.03-1.085-0.294-1.528c-0.389-0.653-1.468-0.722-1.994-0.191
		c-0.279,0.282-0.261,0.473-0.007,0.753c0.574,0.631,1.422,1.036,2.187,1.374C23.323,2.345,23.359,2.208,23.395,2.072z"/>
	<path fill="#CBD1EF" d="M23.707,3.473c0.13,0.515,0.293,1.034,0.528,1.512c0.105,0.214,0.263,0.55,0.518,0.62
		c0.26,0.07,0.721-0.078,0.927-0.244c0.25-0.201,0.524-0.522,0.472-0.863c-0.052-0.338-0.278-0.645-0.521-0.875
		c-0.319-0.301-0.726-0.51-1.16-0.578c-0.083-0.013-0.691-0.071-0.704,0.021C23.747,3.202,23.727,3.338,23.707,3.473z"/>
</g>
</svg>